<!--?xml version="1.0" encoding="utf-8"?-->
<!-- Generator: Adobe Illustrator 18.0.0, SVG Export Plug-In . SVG Version: 6.00 Build 0)  -->

<svg version="1.1" id="_x32_" xmlns="http://www.w3.org/2000/svg" xmlns:xlink="http://www.w3.org/1999/xlink" x="0px" y="0px" viewBox="0 0 512 512" style="width: 256px; height: 256px; opacity: 1;" xml:space="preserve">
<style type="text/css">
	.st0{fill:#4B4B4B;}
</style>
<g>
	<path class="st0" d="M0,179.714v248.969c0,13.568,11.101,24.669,24.669,24.669h50.632V155.107H24.669
		C11.101,155.107,0,166.146,0,179.714z" style="fill:#c5a652;"></path>
	<path class="st0" d="M487.393,155.107h-50.632v298.245h50.632c13.506,0,24.607-11.101,24.607-24.669V179.714
		C512,166.146,500.899,155.107,487.393,155.107z" style="fill:#c5a652;"></path>
	<path class="st0" d="M357.765,81.621c0-12.668-10.305-22.973-22.97-22.973h-157.57c-12.672,0-22.976,10.305-22.976,22.973v73.486
		h-30.101v298.245h263.709V155.107h-30.09V81.621z M197.418,101.818h117.177v53.289H197.418V101.818z" style="fill:#c5a652;"></path>
</g>
</svg>
