<!--?xml version="1.0" encoding="utf-8"?-->
<!-- Generator: Adobe Illustrator 18.1.1, SVG Export Plug-In . SVG Version: 6.00 Build 0)  -->

<svg version="1.1" id="_x32_" xmlns="http://www.w3.org/2000/svg" xmlns:xlink="http://www.w3.org/1999/xlink" x="0px" y="0px" viewBox="0 0 512 512" style="width: 256px; height: 256px; opacity: 1;" xml:space="preserve">
<style type="text/css">
	.st0{fill:#4B4B4B;}
</style>
<g>
	<path class="st0" d="M217.593,157.745c23.164-5.908,37.133-29.497,31.209-52.677c-5.908-23.158-29.497-37.133-52.67-31.21
		c-23.164,5.924-37.126,29.498-31.202,52.67C170.839,149.701,194.429,163.669,217.593,157.745z" style="fill: rgb(56, 70, 65);"></path>
	<path class="st0" d="M258.772,285.288l-2.924,30.642c5.152,3.432,9.893,7.287,14.098,11.476
		c17.31,17.331,26.839,40.36,26.846,64.828c-0.007,24.468-9.536,47.488-26.846,64.828c-17.339,17.302-40.352,26.839-64.836,26.854
		c-24.468-0.015-47.496-9.552-64.828-26.854c-10.954-10.968-18.908-24.528-23.195-39.421l-15.62,34.452
		c21.392,36.959,61.04,59.889,103.643,59.904c66.025-0.015,119.763-53.738,119.77-119.762
		C324.873,347.26,298.995,305.53,258.772,285.288z" style="fill: rgb(56, 70, 65);"></path>
	<path class="st0" d="M230.16,328.899l10.992-115.158c1.773-19.423-9.931-36.452-29.362-38.224
		c-12.453-1.143-25.8,5.152-33.649,13.424l-54.071,53.222l-56.586,4.758c-9.098,0.765-16.09,8.363-16.09,17.483v1.06
		c0,9.688,7.863,17.552,17.56,17.552h58.298c5.484,0,10.802-1.75,15.21-5.007l23.574-17.4l-5.076,56.162l-73.918,5.394
		c-21.46,0.848-30.922,9.453-38.997,28.717L13.163,446.73c-5.287,11.748-0.038,25.574,11.718,30.853
		c11.772,5.295,25.582,0.038,30.862-11.711l39.314-83.97h75.38C208.352,381.485,226.266,365.569,230.16,328.899z" style="fill: rgb(56, 70, 65);"></path>
	<path class="st0" d="M425.341,85.251c23.164-5.908,37.133-29.497,31.209-52.677c-5.908-23.158-29.497-37.133-52.67-31.217
		c-23.172,5.931-37.126,29.505-31.209,52.678C378.588,77.207,402.169,91.175,425.341,85.251z" style="fill: rgb(56, 70, 65);"></path>
	<path class="st0" d="M497.623,291.985l-19.673-153.094c-5.03-38.148-49.193-47.178-74.297-24.096l-61.237,55.222l-58.602,22.044
		c-9.014,3.311-13.854,13.106-10.999,22.279l0.212,0.704c2.803,9.014,12.09,14.347,21.294,12.219l45.125-12.37
		c9.666-2.227,18.847-6.212,27.066-11.756l22.082-13.544l12.355,96.37c0.689,5.31-8.976,28.938-10.545,34.633l-49.442,154.223
		c-3.894,12.067,2.696,25.021,14.756,28.982l0.833,0.265c11.409,3.75,23.771-1.879,28.445-12.923l55.587-134.656l13.4,134.474
		c1.106,12.635,12.226,21.998,24.876,20.961l0.879-0.076c11.961-1,21.157-10.992,21.157-22.983L497.623,291.985z" style="fill: rgb(56, 70, 65);"></path>
</g>
</svg>
