<!--?xml version="1.0" encoding="utf-8"?-->
<!-- Generator: Adobe Illustrator 15.1.0, SVG Export Plug-In . SVG Version: 6.00 Build 0)  -->

<svg version="1.1" id="_x32_" xmlns="http://www.w3.org/2000/svg" xmlns:xlink="http://www.w3.org/1999/xlink" x="0px" y="0px" width="512px" height="512px" viewBox="0 0 512 512" style="width: 256px; height: 256px; opacity: 1;" xml:space="preserve">
<style type="text/css">

	.st0{fill:#4B4B4B;}

</style>
<g>
	<path class="st0" d="M509.915,2.067C498.446-9.417,371.29,29.161,331.086,60.974L451.04,180.927
		C482.853,140.708,521.415,13.567,509.915,2.067z" style="fill: rgb(49, 62, 60);"></path>
	<path class="st0" d="M268.743,122.677l-41.344,10.328L42.211,318.208l12.047,12.063l-16.359,16.344l-12.063-12.047L0.008,360.396
		l151.594,151.608l25.844-25.844l-12.063-12.063l16.359-16.359l12.063,12.047l185.188-185.171l10.344-41.359
		c0,0,18.703-18.719,48.25-48.234L316.993,74.442C287.461,103.942,268.743,122.677,268.743,122.677z" style="fill: rgb(49, 62, 60);"></path>
</g>
</svg>
