<svg version="1.1" id="layer_1" xmlns="http://www.w3.org/2000/svg" xmlns:xlink="http://www.w3.org/1999/xlink" x="0px"
	 y="0px" viewBox="0 0 769.8 84.9" style="enable-background:new 0 0 769.8 84.9;" xml:space="preserve">
<g id="XMLID_2_">
	<path id="XMLID_3_" d="M29.2,45.3v16.1c0,3.8,0,7,0.1,9.4c0,0.8,0.5,1.3,1.3,1.6l7.2,2.1l0.1,2.4c-5-0.1-10.3-0.1-15.8-0.1
		c-5.6,0-10.7,0-15.2,0.1l-0.2-2.4l6.5-1.8c0.8-0.3,1.3-0.8,1.3-1.5c0.1-2.6,0.1-5.9,0.1-9.7V22.5c0-1.6,0-3.1,0-4.4
		c0-1.3,0-2.6-0.1-3.7c0-0.8-0.4-1.4-1.2-1.6l-6.5-1.9L6.6,8.4c4.6,0.1,8.9,0.2,13,0.2h12.4c7.9,0,16.1-0.1,24.6-0.2l0.3,0.4
		l-3,16.3l-2.6,0.4l-3.1-11.9H29.2v27.1H32c2.9,0,5.9,0,9.1-0.1c0.9,0,1.4-0.5,1.7-1.3l1.8-6.7l3.2-0.1c-0.1,4.7-0.1,8.3-0.1,10.6
		c0,2.3,0,5.8,0.1,10.4l-3.2,0.3l-1.8-6.9c-0.2-0.8-0.7-1.3-1.5-1.4c-3.3-0.1-6.4-0.1-9.3-0.1H29.2z"/>
	<path id="XMLID_5_" d="M100.5,72.8c-4.8,3.5-10,5.3-15.6,5.3c-5.3,0-9.2-1.3-11.9-3.9c-2.7-2.6-4-6.3-4-11V52.9
		c0-7-0.1-12.1-0.2-15.4l-7-1.8l-0.3-2c8-1.2,15-2.5,21.1-3.8l0.5,0.4c-0.2,4.1-0.3,9.1-0.3,15.1v15c0,3.9,0.8,6.7,2.3,8.4
		c1.5,1.7,3.7,2.6,6.4,2.6c3.1,0,5.9-0.7,8.5-2V48.7c0-4.6-0.1-8.3-0.2-11.3l-6.6-1.7l-0.3-2c7.7-1.2,14.6-2.5,20.7-3.8l0.6,0.4
		c-0.2,4.2-0.3,9.3-0.3,15.4c0,11.8,0,19,0,21.6c0,1.3,0.1,2.4,0.3,3.1c0.2,0.8,0.5,1.4,0.9,1.8c0.5,0.4,1.1,0.7,2,0.9
		c0.9,0.2,2.2,0.3,3.8,0.3l0.2,2.1c-4.7,1.6-8.7,2.4-12.1,2.4C104.7,78.1,101.8,76.4,100.5,72.8z"/>
	<path id="XMLID_7_" d="M127.6,33.7c7.5-1.1,14.4-2.3,20.6-3.7l0.7,0.4v5.3c5.8-3.7,11.8-5.5,18.1-5.5l0.2,0.3c-1,5.2-2,10.7-3,16.6
		l-2.8,0.5c-0.8-3.2-1.7-5.7-2.5-7.4c-0.8-1.7-2.1-2.6-3.8-2.6c-1.7,0-3.7,0.6-6.2,1.7v20.9c0,5,0,8.7,0.1,10.8
		c0,0.9,0.4,1.5,1.2,1.7l7,1.9l0.1,2.3c-5.4-0.1-10.6-0.1-15.5-0.1c-4.7,0-9.4,0-14.1,0.1l-0.2-2.3l6.2-1.7c0.8-0.2,1.2-0.7,1.2-1.5
		c0-1.4,0-3.4,0-6V49.1c0-5.3-0.1-9.2-0.2-11.6l-7-1.8L127.6,33.7z"/>
	<path id="XMLID_9_" d="M173,33.7c7.5-1.1,14.4-2.3,20.6-3.7l0.7,0.4v5.2c5.5-3.6,10.9-5.5,16.3-5.5c4.8,0,8.5,1.3,11.2,3.9
		c2.7,2.6,4.1,6.3,4.1,11v17.1c0,4.1,0,7.1,0.1,9c0,0.9,0.5,1.4,1.3,1.7l5.9,1.7l0.1,2.3c-4.7-0.1-9.3-0.1-14.1-0.1
		c-4.9,0-9.3,0-13.2,0.1l-0.2-2.3l4.9-1.5c0.7-0.2,1.2-0.7,1.2-1.5c0-0.5,0-1.5,0-3.1V48.1c0-4-0.8-6.9-2.3-8.6
		c-1.6-1.7-3.9-2.6-7-2.6c-2.7,0-5.5,0.8-8.3,2.3v21c0,4.1,0,7.8,0.1,11.2c0,0.9,0.4,1.4,1.1,1.6l5.1,1.6l0.1,2.3
		c-4-0.1-8.4-0.1-13.2-0.1c-4.9,0-9.6,0-14.3,0.1l-0.2-2.3l6.3-1.7c0.7-0.2,1.1-0.7,1.1-1.5c0-2.1,0-4.1,0-6V49.3
		c0-4.3-0.1-8.2-0.2-11.8l-7-1.8L173,33.7z"/>
	<path id="XMLID_11_" d="M239,33.7c8-1.2,15-2.5,21.1-3.8l0.5,0.4c-0.2,4.5-0.3,9.3-0.3,14.4v18.4c0,3.9,0,6.6,0.1,8.1
		c0.1,0.9,0.5,1.4,1.2,1.7l6.1,1.7l0.1,2.3c-4.8-0.1-9.6-0.1-14.4-0.1c-4.9,0-9.6,0-14.4,0.1l-0.2-2.3l6.2-1.7
		c0.7-0.2,1.2-0.7,1.2-1.5c0.1-1.3,0.1-3.4,0.1-6.4V49.3c0-4.3-0.1-8.2-0.2-11.8l-7-1.8L239,33.7z M260.5,13.8
		c0,2.2-0.7,4.1-2.2,5.5c-1.4,1.4-3.3,2.1-5.7,2.1c-2.1,0-3.9-0.7-5.3-2c-1.4-1.3-2.1-3-2.1-5.2c0-2.3,0.7-4.1,2.2-5.5
		c1.5-1.3,3.4-2,5.7-2c2.1,0,3.9,0.6,5.3,1.8S260.5,11.5,260.5,13.8z"/>
	<path id="XMLID_14_" d="M294,37.2c-0.2,10.2-0.3,18.8-0.3,25.8c0,3.3,0.5,5.6,1.5,6.8c1,1.3,2.9,1.9,5.8,1.9c2.2,0,4.6-0.1,7.2-0.4
		l0.4,2.9c-5.2,2.5-10,3.8-14.5,3.8c-4.6,0-8.1-1-10.6-2.9s-3.7-4.8-3.7-8.6c0-6.8,0.1-16.7,0.3-29.6l-6.6-1.7l-0.4-2.6l8.2-0.7
		l4.6-11.5c2.8-0.5,5.3-1,7.6-1.4l0.7,0.3c-0.1,3.9-0.1,8.1-0.1,12.5h13.7v5.3H294z"/>
	<path id="XMLID_16_" d="M352.7,72.8c-4.8,3.5-10,5.3-15.6,5.3c-5.3,0-9.2-1.3-11.9-3.9c-2.7-2.6-4-6.3-4-11V52.9
		c0-7-0.1-12.1-0.2-15.4l-7-1.8l-0.3-2c8-1.2,15-2.5,21.1-3.8l0.5,0.4c-0.2,4.1-0.3,9.1-0.3,15.1v15c0,3.9,0.8,6.7,2.3,8.4
		c1.5,1.7,3.7,2.6,6.4,2.6c3.1,0,5.9-0.7,8.5-2V48.7c0-4.6-0.1-8.3-0.2-11.3l-6.6-1.7l-0.3-2c7.7-1.2,14.6-2.5,20.7-3.8l0.6,0.4
		c-0.2,4.2-0.3,9.3-0.3,15.4c0,11.8,0,19,0,21.6c0,1.3,0.1,2.4,0.3,3.1c0.2,0.8,0.5,1.4,0.9,1.8c0.5,0.4,1.1,0.7,2,0.9
		c0.9,0.2,2.2,0.3,3.8,0.3l0.2,2.1c-4.7,1.6-8.7,2.4-12.1,2.4C356.9,78.1,354,76.4,352.7,72.8z"/>
	<path id="XMLID_18_" d="M379.8,33.7c7.5-1.1,14.4-2.3,20.6-3.7l0.7,0.4v5.3c5.8-3.7,11.8-5.5,18.1-5.5l0.2,0.3
		c-1,5.2-2,10.7-3,16.6l-2.8,0.5c-0.8-3.2-1.7-5.7-2.5-7.4c-0.8-1.7-2.1-2.6-3.8-2.6c-1.7,0-3.7,0.6-6.2,1.7v20.9
		c0,5,0,8.7,0.1,10.8c0,0.9,0.4,1.5,1.2,1.7l7,1.9l0.1,2.3c-5.4-0.1-10.6-0.1-15.5-0.1c-4.7,0-9.4,0-14.1,0.1l-0.2-2.3l6.2-1.7
		c0.8-0.2,1.2-0.7,1.2-1.5c0-1.4,0-3.4,0-6V49.1c0-5.3-0.1-9.2-0.2-11.6l-7-1.8L379.8,33.7z"/>
	<path id="XMLID_20_" d="M472.8,73.5c-6,3.1-12.4,4.6-19,4.6c-7.9,0-14.4-2-19.5-5.9c-5-3.9-7.5-9.7-7.5-17.4
		c0-7.3,2.4-13.2,7.3-17.8c4.8-4.6,11-6.9,18.5-6.9c6.5,0,11.6,1.8,15.2,5.3c3.6,3.5,5.3,8.4,5.3,14.6c0,0.9,0,1.9-0.1,2.9h-31.2
		c0,6.5,1.6,11.2,4.8,14.1c3.2,2.9,8.5,4.3,15.8,4.3c3.5,0,6.9-0.3,10.2-0.9L472.8,73.5z M458.2,48.2v-1.2c0-4.4-0.6-7.6-1.7-9.5
		c-1.1-1.9-2.8-2.9-5.2-2.9c-2.8,0-5,1.3-6.6,4c-1.6,2.7-2.6,5.9-2.9,9.6H458.2z"/>
	<path id="XMLID_23_" d="M482.6,48.9h27.1V56h-27.1V48.9z"/>
	<path id="XMLID_25_" d="M547.6,35.6c-2.1-0.5-4.3-0.7-6.6-0.7c-3,0-5.4,0.5-7.3,1.6c-1.9,1-2.8,2.5-2.8,4.4c0,1.5,0.4,2.6,1.2,3.4
		c0.8,0.8,2.2,1.5,4.2,2.2l7.8,2.7c4.7,1.6,8.1,3.5,10.2,5.8c2.1,2.3,3.2,4.9,3.2,7.9c0,4.8-2,8.5-6,11.2c-4,2.7-9.3,4-15.8,4
		c-5.5,0-10.8-1.1-16.1-3.4c1.1-4.4,2-8.6,2.7-12.7l2.5-0.4l3.5,10.6c2,0.7,4.5,1,7.5,1c2.8,0,5.1-0.5,6.9-1.6s2.6-2.6,2.6-4.5
		c0-1.6-0.5-2.9-1.6-4c-1.1-1.1-3.2-2.2-6.3-3.2l-6-2.1c-3.8-1.3-6.7-3.1-8.6-5.2c-1.9-2.1-2.9-4.7-2.9-7.8c0-4.8,1.9-8.4,5.6-10.9
		c3.7-2.5,8.9-3.8,15.5-3.8c5.4,0,10.3,0.8,14.6,2.4c-1,4.3-1.8,8.3-2.5,12.1l-2.7,0.4L547.6,35.6z"/>
	<path id="XMLID_27_" d="M585.4,37.2c-0.2,10.2-0.3,18.8-0.3,25.8c0,3.3,0.5,5.6,1.5,6.8c1,1.3,2.9,1.9,5.8,1.9
		c2.2,0,4.6-0.1,7.2-0.4l0.4,2.9c-5.2,2.5-10,3.8-14.5,3.8c-4.6,0-8.1-1-10.6-2.9s-3.7-4.8-3.7-8.6c0-6.8,0.1-16.7,0.3-29.6
		l-6.6-1.7l-0.4-2.6l8.2-0.7l4.6-11.5c2.8-0.5,5.3-1,7.6-1.4l0.7,0.3c-0.1,3.9-0.1,8.1-0.1,12.5h13.7v5.3H585.4z"/>
	<path id="XMLID_29_" d="M660.2,53.2c0,7.4-2.5,13.4-7.4,18c-4.9,4.6-11.4,6.9-19.3,6.9c-7.7,0-13.9-2.2-18.5-6.5s-6.9-10-6.9-17.1
		c0-7.1,2.4-13,7.2-17.6c4.8-4.6,11.3-6.9,19.5-6.9c7.8,0,13.9,2.1,18.5,6.3C657.9,40.7,660.2,46.2,660.2,53.2z M623.3,53.6
		c0,5.9,0.9,10.7,2.7,14.4c1.8,3.7,4.6,5.5,8.5,5.5c3.6,0,6.3-1.6,8-4.9c1.7-3.3,2.6-8.1,2.6-14.5c0-6-0.9-10.8-2.7-14.2
		s-4.6-5.2-8.5-5.2c-3.6,0-6.2,1.6-8,4.7C624.2,42.5,623.3,47.2,623.3,53.6z"/>
	<path id="XMLID_32_" d="M668.4,33.7c7.5-1.1,14.4-2.3,20.6-3.7l0.7,0.4v5.3c5.8-3.7,11.8-5.5,18.1-5.5l0.2,0.3
		c-1,5.2-2,10.7-3,16.6l-2.8,0.5c-0.8-3.2-1.7-5.7-2.5-7.4c-0.8-1.7-2.1-2.6-3.8-2.6c-1.7,0-3.7,0.6-6.2,1.7v20.9
		c0,5,0,8.7,0.1,10.8c0,0.9,0.4,1.5,1.2,1.7l7,1.9l0.1,2.3c-5.4-0.1-10.6-0.1-15.5-0.1c-4.7,0-9.4,0-14.1,0.1l-0.2-2.3l6.2-1.7
		c0.8-0.2,1.2-0.7,1.2-1.5c0-1.4,0-3.4,0-6V49.1c0-5.3-0.1-9.2-0.2-11.6l-7-1.8L668.4,33.7z"/>
	<path id="XMLID_34_" d="M761.4,73.5c-6,3.1-12.4,4.6-19,4.6c-7.9,0-14.4-2-19.5-5.9c-5-3.9-7.5-9.7-7.5-17.4
		c0-7.3,2.4-13.2,7.3-17.8c4.8-4.6,11-6.9,18.5-6.9c6.5,0,11.6,1.8,15.2,5.3c3.6,3.5,5.3,8.4,5.3,14.6c0,0.9,0,1.9-0.1,2.9h-31.2
		c0,6.5,1.6,11.2,4.8,14.1c3.2,2.9,8.5,4.3,15.8,4.3c3.5,0,6.9-0.3,10.2-0.9L761.4,73.5z M746.8,48.2v-1.2c0-4.4-0.6-7.6-1.7-9.5
		c-1.1-1.9-2.8-2.9-5.2-2.9c-2.8,0-5,1.3-6.6,4c-1.6,2.7-2.6,5.9-2.9,9.6H746.8z"/>
</g>
</svg>
