<?xml version="1.0" encoding="utf-8"?>
<!-- Generator: Adobe Illustrator 19.0.0, SVG Export Plug-In . SVG Version: 6.00 Build 0)  -->
<svg version="1.1" id="レイヤー_1" xmlns="http://www.w3.org/2000/svg" xmlns:xlink="http://www.w3.org/1999/xlink" x="0px"
	 y="0px" viewBox="-223 25 512 512" style="enable-background:new -223 25 512 512;" xml:space="preserve">
<style type="text/css">
	.st0{fill:#06C755;}
</style>
<path class="st0" d="M88,221.8v81.3c0,2.1-1.6,3.7-3.7,3.7h-13c-1.3,0-2.4-0.7-3-1.5L31,255v48.2c0,2.1-1.6,3.7-3.7,3.7h-13
	c-2.1,0-3.7-1.6-3.7-3.7v-81.3c0-2.1,1.6-3.7,3.7-3.7h12.9c1.1,0,2.4,0.6,3,1.6l37.3,50.3v-48.2c0-2.1,1.6-3.7,3.7-3.7h13
	c2.1-0.1,3.8,1.6,3.8,3.5L88,221.8z M-5.7,218.1h-13c-2.1,0-3.7,1.6-3.7,3.7v81.3c0,2.1,1.6,3.7,3.7,3.7h13c2.1,0,3.7-1.6,3.7-3.7
	v-81.3C-2,219.9-3.6,218.1-5.7,218.1z M-37.1,286.2h-35.6v-64.4c0-2.1-1.6-3.7-3.7-3.7h-13c-2.1,0-3.7,1.6-3.7,3.7v81.3
	c0,1,0.3,1.8,1,2.5c0.7,0.6,1.5,1,2.5,1h52.2c2.1,0,3.7-1.6,3.7-3.7v-13c0-1.9-1.6-3.7-3.5-3.7L-37.1,286.2z M156.6,218.1h-52.3
	c-1.9,0-3.7,1.6-3.7,3.7v81.3c0,1.9,1.6,3.7,3.7,3.7h52.2c2.1,0,3.7-1.6,3.7-3.7V290c0-2.1-1.6-3.7-3.7-3.7H121v-13.6h35.5
	c2.1,0,3.7-1.6,3.7-3.7v-13.1c0-2.1-1.6-3.7-3.7-3.7H121v-13.7h35.5c2.1,0,3.7-1.6,3.7-3.7v-13c-0.1-1.9-1.7-3.7-3.7-3.7H156.6z
	 M289,118.4v326c-0.1,51.2-42.1,92.7-93.4,92.6h-326c-51.2-0.1-92.7-42.2-92.6-93.4v-326c0.1-51.2,42.2-92.7,93.4-92.6h326
	C247.6,25.1,289.1,67.1,289,118.4z M218.6,258.5c0-83.4-83.7-151.3-186.4-151.3s-186.4,67.9-186.4,151.3
	c0,74.7,66.3,137.4,155.9,149.3c21.8,4.7,19.3,12.7,14.4,42.1c-0.8,4.7-3.8,18.4,16.1,10.1s107.3-63.2,146.5-108.2
	c27-29.7,39.9-59.8,39.9-93.1V258.5z"/>
</svg>
